HIERARCHY
ROOT Hips
{
	OFFSET 0.00000 0.00000 0.00000
	CHANNELS 6 Xposition Yposition Zposition Zrotation Yrotation Xrotation 
	JOINT LHipJoint
	{
		OFFSET 0 0 0
		CHANNELS 3 Zrotation Yrotation Xrotation
		JOINT LeftHip
		{
			OFFSET 1.88772 -1.62769 0.85636
			CHANNELS 3 Zrotation Yrotation Xrotation
			JOINT LeftKnee
			{
				OFFSET 2.39836 -6.58946 0.00000
				CHANNELS 3 Zrotation Yrotation Xrotation
				JOINT LeftAnkle
				{
					OFFSET 2.78523 -7.65237 0.00000
					CHANNELS 3 Zrotation Yrotation Xrotation
					JOINT LeftToe
					{
						OFFSET 0.19551 -0.53715 1.90694
						CHANNELS 3 Zrotation Yrotation Xrotation
						End Site
						{
							OFFSET 0.00000 -0.00000 0.99735
						}
					}
				}
			}
		}
	}
	JOINT RHipJoint
	{
		OFFSET 0 0 0
		CHANNELS 3 Zrotation Yrotation Xrotation
		JOINT RightHip
		{
			OFFSET -1.74282 -1.62769 0.85636
			CHANNELS 3 Zrotation Yrotation Xrotation
			JOINT RightKnee
			{
				OFFSET -2.36062 -6.48575 0.00000
				CHANNELS 3 Zrotation Yrotation Xrotation
				JOINT RightAnkle
				{
					OFFSET -2.76258 -7.59014 0.00000
					CHANNELS 3 Zrotation Yrotation Xrotation
					JOINT RightToe
					{
						OFFSET -0.19308 -0.53048 2.03952
						CHANNELS 3 Zrotation Yrotation Xrotation
						End Site
						{
							OFFSET -0.00000 -0.00000 1.06031
						}
					}
				}
			}
		}
	}
	JOINT lowerback
	{
		OFFSET 0 0 0
		CHANNELS 3 Zrotation Yrotation Xrotation
		JOINT Chest
		{
			OFFSET -0.08299 2.03160 -0.30721
			CHANNELS 3 Zrotation Yrotation Xrotation
			JOINT Chest2
			{
				OFFSET -0.01030 2.00603 0.13891
				CHANNELS 3 Zrotation Yrotation Xrotation
				JOINT lowerneck
				{
					OFFSET 0 0 0
					CHANNELS 3 Zrotation Yrotation Xrotation
					JOINT Neck
					{
						OFFSET 0.04282 1.69578 0.19991
						CHANNELS 3 Zrotation Yrotation Xrotation
						JOINT Head
						{
							OFFSET -0.08665 1.66622 -0.03785
							CHANNELS 3 Zrotation Yrotation Xrotation
							End Site
							{
								OFFSET -0.03699 1.83329 -0.04094
							}
						}
					}
				}
				JOINT LeftCollar
				{
					OFFSET 0 0 0
					CHANNELS 3 Zrotation Yrotation Xrotation
					JOINT LeftShoulder
					{
						OFFSET 3.04219 1.50803 -0.05347
CHANNELS 3 Zrotation Xrotation Yrotation
						JOINT LeftElbow
						{
OFFSET 0 -5.791990 0.000000
CHANNELS 3 Zrotation Xrotation Yrotation
							JOINT LeftWrist
							{
OFFSET 0 -3.499080 0.000000
CHANNELS 3 Zrotation Xrotation Yrotation
								JOINT lhand
								{
									OFFSET 0 0 0
CHANNELS 3 Zrotation Xrotation Yrotation
									JOINT LFingers
									{
OFFSET 0 -0.593860 0.000000
CHANNELS 3 Zrotation Xrotation Yrotation
										End Site
										{
OFFSET 0 -0.478790 0.000000
										}
									}
								}
								JOINT LThumb
								{
OFFSET 0 0.000000 0.000000
CHANNELS 3 Zrotation Xrotation Yrotation
									End Site
									{
OFFSET 0 -0.486100 0.486100
									}
								}
							}
						}
					}
				}
				JOINT RightCollar
				{
					OFFSET 0 0 0
					CHANNELS 3 Zrotation Yrotation Xrotation
					JOINT RightShoulder
					{
						OFFSET -3.30316 1.18853 0.11175
CHANNELS 3 Zrotation Xrotation Yrotation
						JOINT RightElbow
						{
OFFSET 0 -5.737990 0.000000
CHANNELS 3 Zrotation Xrotation Yrotation
							JOINT RightWrist
							{
OFFSET 0 -3.579160 -0.000000
CHANNELS 3 Zrotation Xrotation Yrotation
								JOINT rhand
								{
									OFFSET 0 0 0
CHANNELS 3 Zrotation Xrotation Yrotation
									JOINT RFingers
									{
OFFSET 0 -0.615580 0.000000
CHANNELS 3 Zrotation Xrotation Yrotation
										End Site
										{
OFFSET 0 -0.496290 0.000000
										}
									}
								}
								JOINT RThumb
								{
OFFSET 0 0.000000 0.000000
CHANNELS 3 Zrotation Xrotation Yrotation
									End Site
									{
OFFSET 0 -0.503870 0.503870
									}
								}
							}
						}
					}
				}
			}
		}
	}
}
MOTION
Frames: 11
Frame Time: 0.008333333333333333
2.764208 17.920330 18.305425 5.210933 -66.985429 2.303194 0.000000 0.000000 0.000000 -18.918203 -7.322991 -27.095535 3.295923 11.159284 32.818951 0.379507 2.498883 -12.824246 0.017687 0.838613 2.305007 0.000000 0.000000 0.000000 12.776329 -3.076760 -10.728019 -3.914944 -12.046381 35.896339 0.049755 -17.690104 -24.623821 -0.521863 -4.629781 12.855652 -4.435859 1.429465 3.235118 0.394629 1.639363 -3.962540 2.758894 1.007674 -6.083492 3.288845 -1.335573 -4.902932 2.183693 -2.125622 3.550000 0.061594 -0.965154 1.933565 0.000000 0.000000 0.000000 15.631183 12.532063 -35.838359 25.507540 -36.717031 8.592004 13.400919 -30.939257 19.939913 0.000000 0.000000 0.000000 -7.125000 0.000000 0.000000 -9.638170 9.754735 -7.982241 0.000000 0.000000 0.000000 -11.634764 17.893308 40.170164 -25.164756 -36.371711 -8.387566 -18.641758 -0.632502 32.024585 0.000000 0.000000 0.000000 7.125000 0.000000 0.000000 16.261305 62.686053 -7.088448
3.075660 17.968311 18.684264 9.159476 -75.939017 0.339903 0.000000 0.000000 0.000000 -20.675272 -4.786977 -28.042270 2.888742 10.512755 30.653554 0.388279 6.548350 -15.971800 0.089696 1.926412 5.302360 0.000000 0.000000 0.000000 13.333095 -5.015815 -15.777597 -4.602574 -12.921715 39.076154 0.052446 -16.383982 -22.727715 -0.316326 -3.613211 9.991189 -5.399414 0.697041 3.202132 -0.098187 0.558978 -4.119840 2.878970 0.503532 -6.153230 4.257039 -2.547976 -4.422620 2.985514 -3.831155 3.370919 0.108535 -1.799710 1.778360 0.000000 0.000000 0.000000 18.286669 11.708745 -33.259714 31.251184 -41.941905 12.237386 19.108287 -40.755757 21.828041 0.000000 0.000000 0.000000 -7.125000 0.000000 0.000000 -6.094604 7.115796 -5.323729 0.000000 0.000000 0.000000 -11.816940 18.224150 42.119364 -28.631971 -39.691468 -10.524942 -18.888936 -0.707697 31.021270 0.000000 0.000000 0.000000 7.125000 0.000000 0.000000 15.200114 61.782945 -6.287219
3.472632 18.093675 18.820766 4.846279 -83.960606 5.262854 0.000000 0.000000 0.000000 -18.888557 -2.915807 -29.518539 2.858550 10.461905 30.486425 0.349744 8.881862 -17.732478 0.147275 2.470339 6.807500 0.000000 0.000000 0.000000 14.070582 -5.155430 -12.809987 -4.800322 -13.155389 39.952942 -0.045112 -13.917929 -20.250771 -1.831571 -6.227450 18.680172 -5.183149 0.483734 2.826518 0.833012 0.367484 -3.874708 3.751134 0.406286 -5.665145 4.126987 -2.160721 -5.611388 2.983167 -3.380481 3.445630 0.123829 -1.564187 2.021682 0.000000 0.000000 0.000000 17.676536 9.723015 -30.414633 33.189614 -43.475174 13.552366 21.317528 -42.452276 21.423288 0.000000 0.000000 0.000000 -7.125000 0.000000 0.000000 -4.664583 7.202551 -4.056726 0.000000 0.000000 0.000000 -11.883690 18.486469 40.233418 -30.993493 -41.729884 -12.065571 -17.527007 -0.627314 31.072032 0.000000 0.000000 0.000000 7.125000 0.000000 0.000000 16.747214 61.492629 -6.830956
4.031554 18.085942 18.746327 24.872918 -92.000705 -13.815941 0.000000 0.000000 0.000000 -17.532072 -0.205648 -32.816169 2.946858 10.608499 30.970675 0.089521 13.091427 -19.667266 0.079184 1.805295 4.968144 0.000000 0.000000 0.000000 13.522334 -7.729422 -8.780457 -3.485540 -11.441185 33.784113 1.053049 -20.025920 -17.414326 -0.342339 -3.751540 10.379521 -4.586680 0.488730 2.831017 1.277036 0.420216 -4.007332 3.876729 0.421270 -5.808825 4.070716 -1.136825 -6.533537 3.258789 -2.085508 3.427594 0.256389 -0.907046 2.195933 0.000000 0.000000 0.000000 16.708213 9.797780 -30.371150 35.347336 -45.058387 15.058708 22.374753 -43.789313 21.792396 0.000000 0.000000 0.000000 -7.125000 0.000000 0.000000 -4.029563 6.646029 -3.545104 0.000000 0.000000 0.000000 -11.745562 17.675278 41.707441 -31.394455 -42.059059 -12.333292 -20.325892 0.675884 32.178183 0.000000 0.000000 0.000000 7.125000 0.000000 0.000000 14.465039 63.274744 -6.483951
4.748693 18.079271 18.445796 10.257684 -100.848726 1.495456 0.000000 0.000000 0.000000 -14.888753 2.207701 -34.969987 2.860019 10.464919 30.495843 -0.330194 17.973246 -22.365864 0.378331 3.950040 10.936238 0.000000 0.000000 0.000000 13.040570 -10.473318 -7.231203 -2.130623 -9.132829 26.211857 1.890323 -27.311770 -25.737816 -3.492170 -11.451092 33.818067 -4.224967 0.918466 2.851535 1.233255 1.005215 -4.105863 3.579160 0.697143 -5.975192 4.246587 -1.223340 -6.547734 4.266100 -2.337637 4.183199 0.536017 -0.988687 2.463682 0.000000 0.000000 0.000000 16.186282 10.144608 -33.606361 36.206987 -45.654985 15.670296 22.247005 -43.094569 22.143222 0.000000 0.000000 0.000000 -7.125000 0.000000 0.000000 -4.143396 6.298619 -3.673872 0.000000 0.000000 0.000000 -9.788486 18.169063 40.367586 -33.112115 -43.415930 -13.499082 -20.131074 4.412303 33.447251 0.000000 0.000000 0.000000 7.125000 0.000000 0.000000 15.757745 64.447061 -7.508667
5.661207 17.976632 17.959051 3.847810 -109.724703 8.319193 0.000000 0.000000 0.000000 -12.759581 4.164706 -36.335156 2.677075 10.153025 29.473688 -0.711671 22.717436 -26.832444 0.805103 5.726422 15.992504 0.000000 0.000000 0.000000 13.392754 -11.192206 -9.700741 -1.658576 -8.115490 23.065384 1.719050 -27.513041 -27.757753 -1.641650 -8.075267 22.943260 -4.998687 0.972206 2.970511 0.837649 0.994843 -4.231767 3.599547 0.721014 -6.189224 4.722964 -1.636373 -6.846153 3.407624 -2.975038 5.707217 0.143232 -1.275646 3.014030 0.000000 0.000000 0.000000 15.377662 11.039395 -36.629227 35.088258 -44.874958 14.875583 20.203468 -42.042726 23.082237 0.000000 0.000000 0.000000 -7.125000 0.000000 0.000000 -5.508596 5.652005 -4.962829 0.000000 0.000000 0.000000 -10.977689 17.596807 44.097790 -35.990324 -45.505494 -15.515900 -22.398913 5.347435 31.838889 0.000000 0.000000 0.000000 7.125000 0.000000 0.000000 11.795603 63.492135 -5.328488
6.719501 17.759907 17.270932 -0.980938 -119.515302 12.133071 0.000000 0.000000 0.000000 -8.638813 0.585413 -30.987326 2.063087 8.996027 25.783062 0.969383 24.016674 -38.974254 2.379392 9.610181 27.727448 0.000000 0.000000 0.000000 14.820351 -10.589815 -15.198431 -2.000093 -8.866127 25.377529 -0.461316 -22.023515 -33.947960 -0.045836 -1.376115 3.784410 -5.925129 0.788017 3.245453 0.147051 0.624857 -4.239217 3.425851 0.561430 -6.328425 4.023437 -1.016644 -5.864728 2.125210 -1.939211 6.437327 -0.098552 -0.808224 3.077623 0.000000 0.000000 0.000000 14.516981 13.347307 -37.988089 32.126623 -42.645879 12.827290 18.965944 -38.858768 22.830878 0.000000 0.000000 0.000000 -7.125000 0.000000 0.000000 -6.259635 6.103388 -5.594001 0.000000 0.000000 0.000000 -11.645083 18.109948 45.357013 -41.369305 -48.859496 -19.464643 -23.272630 5.641347 32.183010 0.000000 0.000000 0.000000 7.125000 0.000000 0.000000 11.018137 64.069393 -5.121186
7.818224 17.768958 16.506480 0.383360 -130.442758 10.787235 0.000000 0.000000 0.000000 -0.810132 -15.401472 -19.887328 1.616445 8.016752 22.765025 5.949547 18.739130 -54.127622 2.573085 9.966157 28.870221 0.000000 0.000000 0.000000 18.101191 -8.329183 -19.617598 -2.522106 -9.878059 28.582666 -1.172012 -13.212245 -29.052106 -0.009983 0.565265 -1.553421 -3.855116 0.714946 2.877710 0.241804 0.662835 -4.372825 2.362214 0.480186 -6.217339 3.436177 0.883838 -5.357536 0.543996 0.757980 8.250746 -0.390708 0.476274 3.639089 0.000000 0.000000 0.000000 11.787048 15.470658 -33.353898 26.336356 -37.538391 9.092023 15.726043 -26.148884 23.456527 0.000000 0.000000 0.000000 -7.125000 0.000000 0.000000 -8.321377 5.929001 -7.498629 0.000000 0.000000 0.000000 -12.171902 15.977610 47.492997 -40.629082 -48.437905 -18.908691 -26.600820 3.599251 33.759536 0.000000 0.000000 0.000000 7.125000 0.000000 0.000000 8.103116 66.593548 -4.221216
8.757119 17.847260 15.736458 0.178598 -141.092058 11.166821 0.000000 0.000000 0.000000 -2.951070 -7.218873 -25.404715 3.227115 11.053820 32.461677 0.941021 9.611475 -24.183114 0.000108 0.073807 0.202779 0.000000 0.000000 0.000000 20.697921 0.858081 -17.707070 -2.295525 -9.456141 27.232962 -1.286147 -11.412499 -28.292642 -0.106636 -2.104780 5.795294 -4.698931 0.973681 2.420196 -0.252312 0.919711 -4.594540 2.302431 0.623792 -6.221022 3.820873 1.496438 -5.149154 0.301100 1.564473 8.296687 -0.500372 0.873482 3.636012 0.000000 0.000000 0.000000 10.416374 18.382549 -31.214415 22.783854 -33.851640 7.017567 14.503210 -26.811480 23.996054 0.000000 0.000000 0.000000 -7.125000 0.000000 0.000000 -9.108764 5.548901 -8.293191 0.000000 0.000000 0.000000 -11.206602 13.138546 49.745525 -35.210929 -44.962182 -14.962185 -28.581045 2.080913 35.655796 0.000000 0.000000 0.000000 7.125000 0.000000 0.000000 7.079136 69.107144 -4.095875
9.427026 17.856741 15.104049 0.310970 -151.367020 10.036521 0.000000 0.000000 0.000000 -8.349353 -7.338385 -31.684991 6.988749 15.321335 48.829708 0.468753 2.507893 -14.091119 0.125648 -2.237813 -6.165309 0.000000 0.000000 0.000000 23.100109 6.918675 -13.753484 -2.194390 -9.259718 26.611345 -1.556904 -8.548311 -28.018475 -0.259470 -3.260463 9.006026 -4.091966 2.250672 3.204955 -0.833176 2.646008 -3.789863 1.204524 1.430546 -5.888604 3.843115 1.672042 -5.614896 -1.310209 1.950252 7.884035 -1.016599 1.004600 3.616145 0.000000 0.000000 0.000000 11.177319 18.669851 -34.634771 21.557390 -32.473126 6.346527 6.357043 -21.482343 20.695159 0.000000 0.000000 0.000000 -7.125000 0.000000 0.000000 -14.122091 9.654602 -11.929338 0.000000 0.000000 0.000000 -10.017719 13.078959 48.881376 -35.541420 -45.194869 -15.196184 -31.723268 6.239042 39.127192 0.000000 0.000000 0.000000 7.125000 0.000000 0.000000 6.104168 73.615728 -4.166704
9.815616 17.747347 14.399259 1.010995 -161.705568 9.879679 0.000000 0.000000 0.000000 -13.665584 -12.106506 -36.515610 8.420421 16.419915 54.063135 0.276485 -0.000164 -9.927546 0.086191 -1.806147 -4.972498 0.000000 0.000000 0.000000 25.155162 9.640528 -11.334710 -2.123807 -9.119073 26.168631 -1.678501 -4.267927 -26.320771 -0.014508 -0.764725 2.101619 -2.872703 3.255520 2.900947 -0.983582 4.068158 -3.719274 0.268221 2.076359 -5.613288 4.115740 3.098196 -5.141057 -2.743572 3.970049 8.157176 -1.444781 1.950524 3.732698 0.000000 0.000000 0.000000 9.710176 20.165680 -32.884677 21.460933 -32.362441 6.294888 9.333933 -23.867795 21.615304 0.000000 0.000000 0.000000 -7.125000 0.000000 0.000000 -12.249081 8.500917 -10.556203 0.000000 0.000000 0.000000 -10.919767 12.379780 54.058293 -35.551173 -45.201635 -15.203179 -26.494954 -0.346675 36.191409 0.000000 0.000000 0.000000 7.125000 0.000000 0.000000 10.445032 68.983718 -6.029014
